<svg xmlns="http://www.w3.org/2000/svg" viewBox="0 0 512 512" role="img" aria-label="Mess Manager">
<defs>
 <linearGradient id="bg" x1="0" y1="0" x2="1" y2="1"><stop stop-color="#061321"/><stop offset=".58" stop-color="#071827"/><stop offset="1" stop-color="#03120f"/></linearGradient>
 <linearGradient id="g" x1="0" y1="0" x2="1" y2="1"><stop stop-color="#59ed55"/><stop offset=".48" stop-color="#18c85d"/><stop offset="1" stop-color="#05945b"/></linearGradient>
 <linearGradient id="gold" x1="0" y1="0" x2="0" y2="1"><stop stop-color="#ffe06c"/><stop offset="1" stop-color="#f2a817"/></linearGradient>
 <linearGradient id="white" x1="0" y1="0" x2="0" y2="1"><stop stop-color="#fff"/><stop offset="1" stop-color="#dfe6ec"/></linearGradient>
 <filter id="s" x="-25%" y="-25%" width="150%" height="150%"><feDropShadow dx="0" dy="7" stdDeviation="7" flood-color="#000" flood-opacity=".45"/></filter>
</defs>
<rect x="10" y="10" width="492" height="492" rx="105" fill="url(#bg)"/>
<rect x="14" y="14" width="484" height="484" rx="101" fill="none" stroke="#35dc83" stroke-width="3" stroke-opacity=".7"/>
<g filter="url(#s)">
 <!-- balanced house -->
 <path d="M111 213L256 91l145 122" fill="none" stroke="url(#g)" stroke-width="27" stroke-linecap="round" stroke-linejoin="round"/>
 <path d="M126 203v105c0 64 48 113 112 121" fill="none" stroke="url(#g)" stroke-width="27" stroke-linecap="round"/>
 <path d="M386 203v82" fill="none" stroke="url(#g)" stroke-width="27" stroke-linecap="round"/>
 <path d="M365 168v-49h32v77" fill="url(#g)"/>
 <!-- window -->
 <g fill="url(#g)"><rect x="237" y="144" width="17" height="17" rx="4"/><rect x="260" y="144" width="17" height="17" rx="4"/><rect x="237" y="167" width="17" height="17" rx="4"/><rect x="260" y="167" width="17" height="17" rx="4"/></g>
 <!-- steam -->
 <path d="M238 211c-11-14 10-20 0-35M256 211c-11-14 10-20 0-35M274 211c-11-14 10-20 0-35" fill="none" stroke="#fff" stroke-width="7" stroke-linecap="round"/>
 <!-- fork -->
 <g fill="url(#gold)"><rect x="161" y="236" width="7" height="50" rx="3"/><rect x="172" y="236" width="7" height="50" rx="3"/><rect x="183" y="236" width="7" height="50" rx="3"/><rect x="194" y="236" width="7" height="50" rx="3"/><path d="M160 273h42c0 19-8 29-17 33l-2 62h-12l-2-62c-6-4-9-8-9-33z"/></g>
 <!-- spoon -->
 <g fill="url(#gold)"><ellipse cx="346" cy="260" rx="18" ry="27"/><path d="M341 280h10l-3 87h-9z"/></g>
 <!-- pot -->
 <g><path d="M199 267h114l-8 76c-2 18-16 30-34 30h-30c-18 0-32-12-34-30z" fill="url(#white)"/><rect x="190" y="255" width="132" height="19" rx="10" fill="#f8fafc"/><path d="M220 246c7-17 21-26 36-26s29 9 36 26z" fill="#f8fafc"/><ellipse cx="256" cy="219" rx="9" ry="6" fill="#fff"/><circle cx="256" cy="319" r="30" fill="url(#g)"/><path d="M241 319l10 10 22-25" fill="none" stroke="#fff" stroke-width="10" stroke-linecap="round" stroke-linejoin="round"/></g>
 <!-- leaf swoosh -->
 <path d="M218 429c63 5 130-27 178-94 11-15 19-31 24-48-48 9-86 30-115 60-26 27-45 59-87 82z" fill="url(#g)"/>
 <path d="M228 429c52 5 107-12 154-58" fill="none" stroke="#067a4c" stroke-width="4" stroke-linecap="round" opacity=".65"/>
 <!-- calculator -->
 <g transform="translate(341 335)"><rect width="67" height="65" rx="14" fill="#f7fafc"/><rect x="11" y="10" width="45" height="14" rx="4" fill="#08202b"/><g fill="#12ae62"><rect x="11" y="32" width="11" height="11" rx="3"/><rect x="28" y="32" width="11" height="11" rx="3"/><rect x="45" y="32" width="11" height="11" rx="3"/><rect x="11" y="48" width="11" height="11" rx="3"/><rect x="28" y="48" width="11" height="11" rx="3"/><rect x="45" y="48" width="11" height="11" rx="3"/></g></g>
</g>
<!-- brand text kept inside safe icon area -->
<text x="256" y="462" text-anchor="middle" font-family="Arial,Helvetica,sans-serif" font-size="31" font-weight="800" letter-spacing="1.2"><tspan fill="#32d55c">MESS</tspan><tspan fill="#f8fafc"> MANAGER</tspan></text>
<text x="256" y="486" text-anchor="middle" font-family="Arial,Helvetica,sans-serif" font-size="13" font-weight="600" fill="#e8eef3">খাবার  •  হিসাব  •  মিল  •  সব এক সাথে</text>
</svg>